<svg xmlns="http://www.w3.org/2000/svg" xmlns:xlink="http://www.w3.org/1999/xlink" viewBox="0 0 2500.99 411.19"><defs><style>.cls-1{fill:url(#linear-gradient);}.cls-2{fill:url(#linear-gradient-2);}.cls-3{fill:url(#linear-gradient-3);}.cls-4{fill:url(#linear-gradient-4);}.cls-5{fill:url(#linear-gradient-5);}.cls-6{fill:url(#linear-gradient-6);}</style><linearGradient id="linear-gradient" y1="205.6" x2="411.19" y2="205.6" gradientUnits="userSpaceOnUse"><stop offset="0" stop-color="#2615ff"/><stop offset="1" stop-color="#16006a"/></linearGradient><linearGradient id="linear-gradient-2" x1="886.01" y1="205.6" x2="1214.96" y2="205.6" xlink:href="#linear-gradient"/><linearGradient id="linear-gradient-3" x1="1646.79" y1="205.6" x2="2057.98" y2="205.6" xlink:href="#linear-gradient"/><linearGradient id="linear-gradient-4" x1="443.01" y1="205.6" x2="854.19" y2="205.6" xlink:href="#linear-gradient"/><linearGradient id="linear-gradient-5" x1="2089.8" y1="205.6" x2="2500.99" y2="205.6" xlink:href="#linear-gradient"/><linearGradient id="linear-gradient-6" x1="1203.78" y1="205.6" x2="1614.97" y2="205.6" xlink:href="#linear-gradient"/></defs><title>Asset 5</title><g id="Layer_2" data-name="Layer 2"><g id="Layer_1-2" data-name="Layer 1"><path class="cls-1" d="M399.15,258.75A41.12,41.12,0,0,1,370.07,329,41.11,41.11,0,0,0,329,370.07a41.11,41.11,0,0,1-41.12,41.12H123.36a41.12,41.12,0,0,1-41.12-41.12A41.11,41.11,0,0,0,41.12,329,41.12,41.12,0,0,1,0,287.83V123.36A41.11,41.11,0,0,1,41.12,82.24,41.11,41.11,0,0,0,82.24,41.12,41.11,41.11,0,0,1,123.36,0H287.83A41.11,41.11,0,0,1,329,41.12a41.12,41.12,0,0,0,41.12,41.12A41.12,41.12,0,1,1,329,123.36a41.11,41.11,0,0,0-41.12-41.12H123.36a41.11,41.11,0,0,0-41.12,41.12V287.83A41.12,41.12,0,0,0,123.36,329H287.83A41.11,41.11,0,0,0,329,287.83a41.13,41.13,0,0,1,70.2-29.08Z"/><path class="cls-2" d="M1215,41.12a41.11,41.11,0,0,1-41.12,41.12H1009.37a41.11,41.11,0,0,0-41.12,41.12v41.12H1091.6a41.12,41.12,0,1,1,0,82.23H968.25V370.07a41.12,41.12,0,0,1-82.24,0V123.36a41.11,41.11,0,0,1,41.12-41.12,41.11,41.11,0,0,0,41.12-41.12A41.11,41.11,0,0,1,1009.37,0h164.47A41.11,41.11,0,0,1,1215,41.12Z"/><path class="cls-3" d="M2045.94,94.28a41,41,0,0,0-29.08-12,41.12,41.12,0,0,1-41.12-41.12A41.11,41.11,0,0,0,1934.62,0H1770.15A41.11,41.11,0,0,0,1729,41.12a41.11,41.11,0,0,1-41.12,41.12,41.11,41.11,0,0,0-41.12,41.12V370.07a41.12,41.12,0,1,0,82.24,0V329h246.71v41.12a41.12,41.12,0,1,0,82.24,0V123.36A41,41,0,0,0,2045.94,94.28Zm-70.2,111.32a41.11,41.11,0,0,1-41.12,41.11H1770.15A41.11,41.11,0,0,1,1729,205.6V123.36a41.11,41.11,0,0,1,41.12-41.12h164.47a41.11,41.11,0,0,1,41.12,41.12Z"/><path class="cls-4" d="M842.15,94.28a41,41,0,0,0-29.08-12A41.12,41.12,0,0,1,772,41.12,41.11,41.11,0,0,0,730.83,0H566.36a41.11,41.11,0,0,0-41.12,41.12,41.11,41.11,0,0,1-41.12,41.12A41.11,41.11,0,0,0,443,123.36V287.83A41.11,41.11,0,0,0,484.12,329a41.11,41.11,0,0,1,41.12,41.12,41.12,41.12,0,0,0,41.12,41.12H730.83A41.11,41.11,0,0,0,772,370.07,41.11,41.11,0,0,1,813.07,329a41.11,41.11,0,0,0,41.12-41.12V123.36A41,41,0,0,0,842.15,94.28ZM772,287.83A41.11,41.11,0,0,1,730.83,329H566.36a41.12,41.12,0,0,1-41.12-41.12V123.36a41.11,41.11,0,0,1,41.12-41.12H730.83A41.11,41.11,0,0,1,772,123.36Z"/><path class="cls-5" d="M2489,94.29a41,41,0,0,0-29.08-12,41.13,41.13,0,0,1-41.12-41.12A41.11,41.11,0,0,0,2377.63,0H2213.16A41.11,41.11,0,0,0,2172,41.13a41.12,41.12,0,0,1-41.12,41.12,41.11,41.11,0,0,0-41.12,41.12v246.7a41.12,41.12,0,0,0,82.24,0V246.71h287.83A41.09,41.09,0,0,0,2501,205.6V123.37A41,41,0,0,0,2489,94.29Zm-82.24,58.15a41,41,0,0,1-29.08,12H2213.16a41.12,41.12,0,1,1,0-82.23h164.47a41.12,41.12,0,0,1,29.08,70.19Z"/><path class="cls-6" d="M1573.85,246.72A41.11,41.11,0,0,0,1615,205.6V123.36a41.11,41.11,0,0,0-41.12-41.11,41.12,41.12,0,0,1-41.12-41.12A41.11,41.11,0,0,0,1491.61,0H1327.14A41.11,41.11,0,0,0,1286,41.13a41.11,41.11,0,0,1-41.12,41.12,41.11,41.11,0,0,0-41.12,41.11V370.07a41.12,41.12,0,1,0,82.24,0V246.72h82.24V370.07a41.12,41.12,0,0,0,41.11,41.12h164.48a41.12,41.12,0,1,0,0-82.23h-82.24a41.12,41.12,0,0,1-41.12-41.12V246.72Zm-246.71-82.24a41.12,41.12,0,1,1,0-82.23h164.47a41.12,41.12,0,1,1,0,82.23Z"/></g></g></svg>